PathFileType   4   (X/Y/Z)
DataRate	CameraRate	NumFrames	NumMarkers	Units	OrigDataRate	OrigDataStartFrame	OrigNumFrames
120.0	120.0	9	37	mm	120.0	14	108
Frame#	Time	midhip	hip_r	hip_l	knee_r	knee_l	ankle_r	ankle_l	midasis	asis_r	asis_l	psis_r	psis_l	epicondLat_r	epicondLat_l	epicondMed_r	epicondMed_l	malleolusLat_r	malleolusLat_l	malleolusMedv_r	malleolusMedv_l	neck	subclavicle_r	subclavicle_l	sternalnotch	xyphoidprocess	thighwand_r	thighwand_l	upperleg1_r	upperleg1_l	upperleg2_r	upperleg2_l	shankwand_r	shankwand_l	lowerleg1_r	lowerleg1_l	toe_r	toe_l
 	 	X1	Y1	Z1	X2	Y2	Z2	X3	Y3	Z3	X4	Y4	Z4	X5	Y5	Z5	X6	Y6	Z6	X7	Y7	Z7	X8	Y8	Z8	X9	Y9	Z9	X10	Y10	Z10	X11	Y11	Z11	X12	Y12	Z12	X13	Y13	Z13	X14	Y14	Z14	X15	Y15	Z15	X16	Y16	Z16	X17	Y17	Z17	X18	Y18	Z18	X19	Y19	Z19	X20	Y20	Z20	X21	Y21	Z21	X22	Y22	Z22	X23	Y23	Z23	X24	Y24	Z24	X25	Y25	Z25	X26	Y26	Z26	X27	Y27	Z27	X28	Y28	Z28	X29	Y29	Z29	X30	Y30	Z30	X31	Y31	Z31	X32	Y32	Z32	X33	Y33	Z33	X34	Y34	Z34	X35	Y35	Z35	X36	Y36	Z36	X37	Y37	Z37

	14	0.20000	625.062	892.013	-169.222	627.598	872.629	-104.282	615.564	868.971	-254.184	698.368	471.500	-120.567	719.369	460.171	-265.923	654.618	69.213	-153.527	424.623	204.189	-255.646	707.625	957.582	-188.258	717.111	960.466	-70.096	698.139	954.699	-306.421	522.951	1000.284	-138.753	522.528	993.465	-224.529	709.716	471.172	-63.179	715.777	460.921	-323.807	671.454	467.940	-174.747	739.159	428.004	-212.860	645.707	66.993	-114.596	409.955	219.769	-288.252	661.300	84.706	-182.141	438.429	209.495	-230.088	521.119	1418.449	-157.255	651.847	1344.720	-112.534	652.971	1352.895	-221.313	635.184	1356.092	-163.499	721.277	1195.851	-186.563	742.927	566.064	13.575	860.941	562.487	-289.200	743.343	636.456	-47.011	777.165	600.936	-313.743	748.469	552.078	-78.167	776.309	512.583	-312.128	686.611	187.919	-20.268	522.106	298.002	-376.743	663.754	163.399	-94.312	489.382	280.514	-303.753	775.284	39.591	-145.365	456.007	87.104	-281.416
	15	0.20833	637.723	894.584	-168.663	639.334	873.819	-104.140	627.583	871.142	-254.086	702.186	471.373	-120.402	741.596	463.969	-264.774	655.312	69.326	-153.722	454.023	200.418	-255.252	719.623	959.216	-187.414	728.873	961.324	-69.376	710.372	957.108	-305.453	534.784	1001.968	-138.033	534.616	995.435	-223.748	713.868	470.881	-63.083	738.490	464.619	-322.687	675.822	468.065	-174.241	761.375	433.132	-211.500	646.210	67.164	-114.831	439.005	215.626	-287.874	662.142	84.930	-182.160	468.320	206.368	-229.894	532.752	1419.743	-156.222	664.251	1346.643	-112.194	664.102	1354.684	-220.710	646.768	1357.656	-163.133	733.518	1198.002	-186.714	749.277	565.688	13.345	880.910	570.155	-286.881	750.315	635.835	-47.328	796.641	606.570	-312.374	754.238	551.685	-78.114	797.719	518.378	-310.563	687.676	187.809	-20.324	549.052	296.775	-376.142	664.153	163.727	-94.242	516.778	278.887	-303.627	775.354	39.586	-145.359	490.643	85.616	-281.933
	16	0.21667	649.824	896.388	-167.974	651.063	874.913	-103.997	639.678	873.231	-253.986	705.756	471.301	-120.169	763.317	467.767	-263.620	656.043	69.460	-153.820	483.985	195.829	-254.802	731.631	960.783	-186.511	740.582	962.105	-68.577	722.680	959.461	-304.445	546.646	1003.492	-137.551	546.779	997.287	-223.177	717.736	470.630	-62.913	760.668	468.336	-321.556	679.920	467.764	-173.458	783.133	437.867	-210.388	646.688	67.366	-114.986	468.554	210.622	-287.423	662.883	85.158	-182.201	498.274	202.412	-229.400	544.390	1421.264	-155.237	676.626	1348.670	-111.791	675.197	1355.903	-220.417	658.367	1359.186	-162.820	745.311	1199.608	-186.034	755.345	565.343	13.188	900.290	577.660	-284.635	756.898	635.296	-47.698	815.341	611.860	-311.169	759.720	550.933	-78.097	818.511	523.907	-309.196	688.479	187.773	-20.287	576.110	295.079	-375.496	664.959	163.962	-94.330	544.126	276.006	-303.037	775.414	39.582	-145.319	526.028	83.650	-282.137
	17	0.22500	661.942	897.971	-167.453	662.797	875.876	-103.862	651.831	875.174	-253.890	709.104	471.297	-119.870	784.516	471.515	-262.461	656.715	69.639	-153.833	514.515	190.502	-254.275	743.636	962.240	-185.591	752.252	962.792	-67.723	735.021	961.689	-303.460	558.534	1004.797	-137.291	558.946	998.973	-222.820	721.344	470.435	-62.671	782.294	472.015	-320.416	683.363	468.653	-173.794	803.541	442.854	-208.858	647.074	67.618	-115.065	498.620	204.824	-286.882	663.385	85.402	-182.211	528.325	197.467	-228.836	556.201	1422.561	-154.451	687.634	1350.118	-111.596	686.607	1356.967	-220.195	670.009	1360.634	-162.521	756.209	1200.623	-185.042	761.161	565.034	13.119	919.058	584.914	-282.465	763.263	634.793	-47.811	833.629	617.222	-310.010	764.798	550.278	-78.624	838.346	528.928	-307.656	689.068	187.808	-20.156	603.291	292.902	-374.781	666.086	164.253	-94.481	571.640	272.651	-301.880	775.463	39.572	-145.244	562.088	81.277	-282.065
	18	0.23333	674.049	899.264	-167.249	674.546	876.684	-103.748	664.028	876.918	-253.809	712.232	471.373	-119.494	805.163	475.160	-261.302	657.233	69.885	-153.783	545.632	184.521	-253.651	755.629	963.555	-184.696	763.890	963.371	-66.852	747.369	963.738	-302.540	570.456	1005.847	-137.221	571.066	1000.459	-222.671	724.703	470.312	-62.348	803.340	475.601	-319.271	686.918	470.357	-174.490	823.158	447.570	-207.805	647.314	67.938	-115.082	529.230	198.309	-286.238	663.623	85.777	-182.152	559.311	191.961	-228.409	568.150	1423.640	-153.834	698.668	1351.559	-111.511	698.323	1358.106	-219.928	681.600	1361.927	-162.205	767.529	1201.786	-184.028	766.761	564.769	13.150	937.203	591.831	-280.377	770.004	634.366	-47.687	851.662	622.490	-308.661	769.949	549.895	-79.001	857.617	534.041	-306.276	689.505	187.907	-19.929	630.591	290.248	-373.978	667.007	164.340	-94.734	599.686	269.081	-301.040	775.505	39.558	-145.138	598.758	78.581	-281.754
	19	0.24167	686.095	900.356	-168.143	686.314	877.326	-103.669	676.259	878.431	-253.758	715.133	471.535	-119.023	825.215	478.650	-260.154	657.551	70.212	-153.688	577.352	177.973	-252.916	767.606	964.703	-183.857	775.502	963.836	-66.005	759.711	965.571	-301.710	582.443	1006.624	-137.307	583.134	1001.715	-222.716	727.817	470.275	-61.928	823.771	479.039	-318.135	691.170	471.544	-174.258	842.366	451.695	-207.418	647.390	68.332	-115.045	560.407	191.158	-285.475	663.728	86.193	-181.948	590.923	186.081	-227.596	580.008	1424.886	-153.146	711.320	1353.341	-111.456	709.924	1359.190	-220.093	693.135	1363.032	-161.875	779.918	1203.297	-183.746	772.176	564.552	13.288	954.730	598.334	-278.365	776.688	634.055	-47.366	868.844	627.226	-307.493	775.292	549.851	-78.543	876.298	539.195	-305.296	689.852	188.063	-19.615	657.995	287.133	-373.078	667.820	164.409	-94.748	628.057	264.905	-300.086	775.549	39.543	-145.009	635.986	75.652	-281.235
	20	0.25000	697.979	900.997	-169.429	698.102	877.789	-103.637	688.523	879.694	-253.749	717.795	471.783	-118.438	844.621	481.925	-259.035	657.676	70.625	-153.557	609.688	170.954	-252.061	779.572	965.668	-183.095	787.094	964.172	-65.216	772.050	967.164	-300.974	594.528	1007.125	-137.514	595.143	1002.725	-222.932	730.693	470.329	-61.396	843.543	482.272	-317.024	694.849	472.325	-173.454	862.262	455.848	-206.263	647.323	68.798	-114.964	592.169	183.460	-284.583	664.086	86.708	-181.540	622.519	179.518	-226.434	591.761	1425.845	-152.510	723.617	1354.603	-110.880	721.154	1359.950	-219.904	704.664	1363.954	-161.537	791.703	1204.311	-183.303	777.442	564.380	13.523	971.664	604.351	-276.421	782.667	633.862	-46.859	884.964	631.622	-306.583	780.138	549.617	-77.971	894.752	544.125	-304.064	690.151	188.273	-19.227	685.495	283.586	-372.084	668.713	164.854	-94.490	656.554	260.048	-299.257	775.594	39.536	-144.865	673.734	72.586	-280.533
	21	0.25833	710.153	901.541	-170.767	709.913	878.064	-103.671	700.830	880.703	-253.803	720.242	472.109	-117.729	863.329	484.917	-257.960	657.662	71.113	-153.400	642.636	163.572	-251.085	791.538	966.435	-182.419	798.672	964.361	-64.510	784.405	968.508	-300.329	606.715	1007.366	-137.812	607.123	1003.474	-223.284	733.368	470.470	-60.744	862.615	485.233	-315.955	697.360	473.409	-172.901	881.047	459.879	-204.745	647.164	69.322	-114.844	624.521	175.318	-283.564	664.993	87.486	-181.165	654.546	172.528	-225.321	603.332	1426.376	-151.917	734.246	1354.976	-109.895	732.456	1360.329	-219.001	716.228	1364.671	-161.192	802.285	1204.465	-181.938	782.600	564.237	13.824	988.038	609.812	-274.543	788.702	633.251	-46.397	901.064	635.881	-305.275	784.482	548.821	-77.750	912.489	548.546	-302.516	690.439	188.540	-18.785	713.084	279.644	-371.011	669.267	165.548	-94.157	685.627	254.708	-298.665	775.641	39.546	-144.715	711.961	69.479	-279.653
	22	0.26667	722.740	902.028	-172.345	721.735	878.142	-103.787	713.177	881.464	-253.936	722.563	472.494	-116.912	881.300	487.556	-256.946	657.592	71.657	-153.218	676.162	155.951	-249.989	803.511	966.991	-181.837	810.232	964.382	-63.905	796.790	969.601	-299.769	618.990	1007.383	-138.176	619.119	1003.950	-223.725	735.920	470.679	-59.986	880.949	487.849	-314.944	699.544	474.438	-171.920	897.419	463.367	-204.176	646.981	69.887	-114.692	657.448	166.847	-282.424	665.655	88.296	-180.820	687.401	165.546	-224.178	614.790	1426.633	-151.172	745.259	1355.618	-109.452	744.044	1360.610	-218.344	727.799	1365.141	-160.845	813.752	1204.906	-180.534	787.681	564.091	14.159	1003.886	614.647	-272.748	795.047	632.676	-46.345	917.109	639.878	-304.150	788.756	548.099	-77.430	929.158	552.307	-301.462	690.754	188.862	-18.319	740.762	275.342	-369.873	669.185	165.949	-93.792	714.821	249.029	-297.686	775.687	39.579	-144.566	750.620	66.428	-278.587
